<svg width="836" height="828" viewBox="0 0 836 828" fill="none" xmlns="http://www.w3.org/2000/svg">
<path d="M794.473 155.228L634.545 426.038C632.536 429.441 627.559 429.277 625.777 425.749L602.602 379.863C601.769 378.213 600.093 377.157 598.244 377.119L544.692 375.996C540.876 375.916 538.553 371.761 540.484 368.468L700.588 95.4443C702.421 92.3187 705.801 90.4291 709.423 90.505L761.905 91.605C765.623 91.6829 768.991 93.8172 770.648 97.1459L794.815 145.686C796.325 148.719 796.196 152.311 794.473 155.228Z" fill="url(#paint0_linear_3895_7255)" fill-opacity="0.79"/>
<path d="M813.965 473.788C815.751 473.788 817.402 474.741 818.295 476.288L835.196 505.561C836.089 507.108 836.089 509.014 835.196 510.561L818.295 539.835C817.402 541.382 815.751 542.335 813.965 542.335L780.163 542.335C778.376 542.335 776.726 541.382 775.833 539.835L758.932 510.561C758.038 509.014 758.038 507.108 758.932 505.561L775.833 476.288C776.726 474.741 778.376 473.788 780.163 473.788L813.965 473.788Z" fill="url(#paint1_linear_3895_7255)"/>
<path d="M30.9891 674.489C32.7755 674.489 34.4261 675.442 35.3193 676.989L43.9214 691.888C44.8145 693.435 44.8145 695.341 43.9214 696.888L35.3193 711.788C34.4261 713.335 32.7755 714.288 30.9891 714.288L13.7849 714.288C11.9986 714.288 10.3479 713.335 9.45475 711.788L0.852629 696.888C-0.0405351 695.341 -0.0405368 693.435 0.852627 691.888L9.45475 676.989C10.3479 675.442 11.9986 674.489 13.7849 674.489L30.9891 674.489Z" fill="url(#paint2_linear_3895_7255)"/>
<path d="M162.248 44.31C164.035 44.31 165.685 45.263 166.578 46.81L179.002 68.3278C179.895 69.8748 179.895 71.7808 179.002 73.3278L166.578 94.8455C165.685 96.3925 164.035 97.3455 162.248 97.3455L137.402 97.3455C135.615 97.3455 133.965 96.3925 133.072 94.8455L120.648 73.3278C119.755 71.7808 119.755 69.8748 120.648 68.3278L133.072 46.81C133.965 45.263 135.615 44.31 137.402 44.31L162.248 44.31Z" fill="url(#paint3_linear_3895_7255)"/>
<path d="M482.601 120.602C484.388 120.602 486.038 121.555 486.931 123.102L495.161 137.356C496.054 138.903 496.054 140.809 495.161 142.356L486.931 156.61C486.038 158.157 484.388 159.11 482.601 159.11L466.143 159.11C464.356 159.11 462.706 158.157 461.812 156.61L453.583 142.356C452.69 140.809 452.69 138.903 453.583 137.356L461.812 123.102C462.706 121.555 464.356 120.602 466.143 120.602L482.601 120.602Z" fill="url(#paint4_linear_3895_7255)"/>
<rect x="92" y="182" width="620" height="492" stroke="black" stroke-width="16"/>
<path d="M586.773 772.58L723.099 535.743C725.048 532.355 729.957 532.415 731.824 535.848L752.675 574.184C753.55 575.793 755.236 576.795 757.067 576.795H803.384C807.223 576.795 809.63 580.943 807.725 584.276L671.324 822.962C669.543 826.077 666.23 828 662.641 828H617.127C613.442 828 610.056 825.974 608.314 822.727L586.627 782.296C584.994 779.25 585.049 775.576 586.773 772.58Z" fill="url(#paint5_linear_3895_7255)" fill-opacity="0.72"/>
<path d="M112.277 609.854C114.064 609.854 115.714 610.807 116.607 612.354L139.821 652.561C140.714 654.108 140.714 656.014 139.821 657.561L116.607 697.768C115.714 699.315 114.064 700.268 112.277 700.268L65.8503 700.268C64.0639 700.268 62.4133 699.315 61.5201 697.768L38.3067 657.561C37.4135 656.014 37.4135 654.108 38.3067 652.561L61.5201 612.354C62.4133 610.807 64.0639 609.854 65.8503 609.854L112.277 609.854Z" fill="url(#paint6_linear_3895_7255)"/>
<path d="M772.141 217L654.999 418.688" stroke="#BE4054" stroke-width="3" stroke-linecap="round"/>
<path d="M772.141 217L654.999 418.688" stroke="#BC3750" stroke-width="3" stroke-linecap="round"/>
<path d="M772.141 217L654.999 418.688" stroke="#BE4054" stroke-width="3" stroke-linecap="round"/>
<path d="M66.8713 252.663L213.692 5.3215C215.628 2.06077 219.241 0.17531 223.023 0.452702L257.62 2.99039C260.831 3.2259 263.732 4.99272 265.414 7.73739L281.855 34.5581C283.79 37.7137 283.823 41.6797 281.941 44.8672L135.05 293.74C133.252 296.787 129.977 298.657 126.438 298.657H91.9106C88.2144 298.657 84.8196 296.618 83.083 293.355L66.6428 262.466C65.0018 259.382 65.0884 255.666 66.8713 252.663Z" fill="url(#paint7_linear_3895_7255)" fill-opacity="0.35"/>
<path d="M434.957 130.826C436.743 130.826 438.394 131.779 439.287 133.326L464.226 176.521C465.119 178.068 465.119 179.974 464.226 181.521L439.287 224.716C438.394 226.263 436.743 227.216 434.957 227.216L385.079 227.216C383.293 227.216 381.642 226.263 380.749 224.716L355.81 181.521C354.917 179.974 354.917 178.068 355.81 176.521L380.749 133.326C381.642 131.779 383.293 130.826 385.079 130.826L434.957 130.826Z" fill="url(#paint8_linear_3895_7255)"/>
<path d="M377.141 608L259.999 809.688" stroke="#C36464" stroke-width="12" stroke-linecap="round"/>
<path d="M206.141 615L88.9992 816.688" stroke="#C36464" stroke-width="4" stroke-linecap="round"/>
<path d="M655.141 146L537.999 347.688" stroke="#C36464" stroke-width="12" stroke-linecap="round"/>
<defs>
<linearGradient id="paint0_linear_3895_7255" x1="597.065" y1="382.637" x2="778.106" y2="95.2386" gradientUnits="userSpaceOnUse">
<stop stop-color="#C76368"/>
<stop offset="1" stop-color="#BB314C"/>
</linearGradient>
<linearGradient id="paint1_linear_3895_7255" x1="816.852" y1="473.788" x2="777.276" y2="542.335" gradientUnits="userSpaceOnUse">
<stop stop-color="#C45962"/>
<stop offset="1" stop-color="#C45962" stop-opacity="0"/>
<stop offset="1" stop-color="#C45962" stop-opacity="0"/>
</linearGradient>
<linearGradient id="paint2_linear_3895_7255" x1="33.8759" y1="674.489" x2="10.8981" y2="714.288" gradientUnits="userSpaceOnUse">
<stop stop-color="#C45962"/>
<stop offset="1" stop-color="#C45962" stop-opacity="0"/>
<stop offset="1" stop-color="#C45962"/>
</linearGradient>
<linearGradient id="paint3_linear_3895_7255" x1="165.135" y1="44.31" x2="134.515" y2="97.3455" gradientUnits="userSpaceOnUse">
<stop stop-color="#C45962"/>
<stop offset="1" stop-color="#C45962" stop-opacity="0"/>
<stop offset="1" stop-color="#C45962" stop-opacity="0"/>
</linearGradient>
<linearGradient id="paint4_linear_3895_7255" x1="485.488" y1="120.602" x2="463.256" y2="159.11" gradientUnits="userSpaceOnUse">
<stop stop-color="#C45962"/>
<stop offset="1" stop-color="#C45962" stop-opacity="0"/>
<stop offset="1" stop-color="#C45962" stop-opacity="0"/>
</linearGradient>
<linearGradient id="paint5_linear_3895_7255" x1="757.714" y1="571.976" x2="607.205" y2="828.167" gradientUnits="userSpaceOnUse">
<stop stop-color="#C76368"/>
<stop offset="1" stop-color="#BB314C"/>
</linearGradient>
<linearGradient id="paint6_linear_3895_7255" x1="115.164" y1="609.854" x2="62.9635" y2="700.268" gradientUnits="userSpaceOnUse">
<stop stop-color="#C45962"/>
<stop offset="1" stop-color="#C45962" stop-opacity="0"/>
<stop offset="1" stop-color="#C45962" stop-opacity="0"/>
</linearGradient>
<linearGradient id="paint7_linear_3895_7255" x1="241.19" y1="35.7671" x2="118.313" y2="243.299" gradientUnits="userSpaceOnUse">
<stop stop-color="#C76368"/>
<stop offset="1" stop-color="#BB314C"/>
</linearGradient>
<linearGradient id="paint8_linear_3895_7255" x1="437.844" y1="130.826" x2="382.193" y2="227.216" gradientUnits="userSpaceOnUse">
<stop stop-color="#C45962"/>
<stop offset="1" stop-color="#C45962" stop-opacity="0"/>
<stop offset="1" stop-color="#C45962" stop-opacity="0"/>
</linearGradient>
</defs>
</svg>
