<svg width="206" height="267" viewBox="0 0 206 267" fill="#fff" xmlns="http://www.w3.org/2000/svg">
<path d="M5.90092 0.90909V22H2.08026V0.90909H5.90092ZM10.9083 22V0.90909H24.4196V4.11186H14.7289V9.83771H23.4928V13.0405H14.7289V22H10.9083ZM35.392 0.90909H39.707L44.8665 10.2393H45.0724L50.2319 0.90909H54.5469L46.8746 14.1321V22H43.0643V14.1321L35.392 0.90909ZM75.7792 11.4545C75.7792 13.727 75.3535 15.6734 74.5022 17.2937C73.6577 18.9071 72.5043 20.1429 71.042 21.0011C69.5865 21.8593 67.9353 22.2884 66.0885 22.2884C64.2417 22.2884 62.5871 21.8593 61.1247 21.0011C59.6692 20.136 58.5158 18.8968 57.6645 17.2834C56.82 15.6631 56.3978 13.7202 56.3978 11.4545C56.3978 9.18205 56.82 7.23911 57.6645 5.62571C58.5158 4.00545 59.6692 2.76622 61.1247 1.90802C62.5871 1.04983 64.2417 0.620738 66.0885 0.620738C67.9353 0.620738 69.5865 1.04983 71.042 1.90802C72.5043 2.76622 73.6577 4.00545 74.5022 5.62571C75.3535 7.23911 75.7792 9.18205 75.7792 11.4545ZM71.9379 11.4545C71.9379 9.85488 71.6873 8.5058 71.1861 7.40731C70.6918 6.30196 70.0053 5.4678 69.1265 4.90483C68.2477 4.33499 67.235 4.05007 66.0885 4.05007C64.9419 4.05007 63.9293 4.33499 63.0505 4.90483C62.1717 5.4678 61.4817 6.30196 60.9805 7.40731C60.4862 8.5058 60.2391 9.85488 60.2391 11.4545C60.2391 13.0542 60.4862 14.4067 60.9805 15.5121C61.4817 16.6106 62.1717 17.4447 63.0505 18.0146C63.9293 18.5775 64.9419 18.859 66.0885 18.859C67.235 18.859 68.2477 18.5775 69.1265 18.0146C70.0053 17.4447 70.6918 16.6106 71.1861 15.5121C71.6873 14.4067 71.9379 13.0542 71.9379 11.4545ZM93.5564 0.90909H97.3771V14.6882C97.3771 16.1986 97.0201 17.5271 96.3061 18.6737C95.5989 19.8202 94.6034 20.7161 93.3195 21.3615C92.0357 22 90.5356 22.3192 88.8192 22.3192C87.0959 22.3192 85.5924 22 84.3085 21.3615C83.0247 20.7161 82.0292 19.8202 81.322 18.6737C80.6149 17.5271 80.2613 16.1986 80.2613 14.6882V0.90909H84.082V14.369C84.082 15.2478 84.2742 16.0304 84.6587 16.717C85.05 17.4035 85.5993 17.9425 86.3064 18.3338C87.0136 18.7183 87.8512 18.9105 88.8192 18.9105C89.7872 18.9105 90.6248 18.7183 91.332 18.3338C92.046 17.9425 92.5952 17.4035 92.9797 16.717C93.3642 16.0304 93.5564 15.2478 93.5564 14.369V0.90909ZM123.296 22L117.549 1.63636H121.517L125.186 16.6009H125.375L129.292 1.63636H132.902L136.829 16.6108H137.008L140.677 1.63636H144.644L138.897 22H135.258L131.181 7.71165H131.022L126.936 22H123.296ZM148.743 22H144.806L151.975 1.63636H156.529L163.708 22H159.77L154.331 5.8125H154.172L148.743 22ZM148.873 14.0156H159.611V16.9787H148.873V14.0156ZM183.964 1.63636V22H180.683L171.088 8.12926H170.919V22H167.23V1.63636H170.531L180.116 15.517H180.295V1.63636H183.964ZM187.929 4.72869V1.63636H204.176V4.72869H197.882V22H194.223V4.72869H187.929ZM1.27273 35.2614V31.7273H19.8409V35.2614H12.6477V55H8.46591V35.2614H1.27273ZM44.1447 43.3636C44.1447 45.8712 43.675 48.0189 42.7356 49.8068C41.8037 51.5871 40.531 52.9508 38.9174 53.8977C37.3113 54.8447 35.4894 55.3182 33.4515 55.3182C31.4136 55.3182 29.5878 54.8447 27.9742 53.8977C26.3681 52.9432 25.0954 51.5758 24.156 49.7955C23.2242 48.0076 22.7583 45.8636 22.7583 43.3636C22.7583 40.8561 23.2242 38.7121 24.156 36.9318C25.0954 35.1439 26.3681 33.7765 27.9742 32.8295C29.5878 31.8826 31.4136 31.4091 33.4515 31.4091C35.4894 31.4091 37.3113 31.8826 38.9174 32.8295C40.531 33.7765 41.8037 35.1439 42.7356 36.9318C43.675 38.7121 44.1447 40.8561 44.1447 43.3636ZM39.906 43.3636C39.906 41.5985 39.6295 40.1098 39.0765 38.8977C38.531 37.678 37.7734 36.7576 36.8037 36.1364C35.8341 35.5076 34.7166 35.1932 33.4515 35.1932C32.1863 35.1932 31.0689 35.5076 30.0992 36.1364C29.1295 36.7576 28.3681 37.678 27.8151 38.8977C27.2697 40.1098 26.9969 41.5985 26.9969 43.3636C26.9969 45.1288 27.2697 46.6212 27.8151 47.8409C28.3681 49.053 29.1295 49.9735 30.0992 50.6023C31.0689 51.2235 32.1863 51.5341 33.4515 51.5341C34.7166 51.5341 35.8341 51.2235 36.8037 50.6023C37.7734 49.9735 38.531 49.053 39.0765 47.8409C39.6295 46.6212 39.906 45.1288 39.906 43.3636ZM73.5789 39.1591C73.3895 38.5455 73.1281 37.9962 72.7948 37.5114C72.469 37.0189 72.0751 36.5985 71.613 36.25C71.1584 35.9015 70.6357 35.6402 70.0448 35.4659C69.4539 35.2841 68.8099 35.1932 68.113 35.1932C66.863 35.1932 65.7493 35.5076 64.772 36.1364C63.7948 36.7652 63.0258 37.6894 62.4652 38.9091C61.9122 40.1212 61.6357 41.5985 61.6357 43.3409C61.6357 45.0985 61.9122 46.5871 62.4652 47.8068C63.0183 49.0265 63.7872 49.9545 64.772 50.5909C65.7569 51.2197 66.9008 51.5341 68.2039 51.5341C69.3857 51.5341 70.4084 51.3068 71.272 50.8523C72.1433 50.3977 72.8137 49.7538 73.2834 48.9205C73.7531 48.0795 73.988 47.0947 73.988 45.9659L74.9425 46.1136H68.6243V42.8182H78.0675V45.6136C78.0675 47.6061 77.6433 49.3295 76.7948 50.7841C75.9463 52.2386 74.7796 53.3598 73.2948 54.1477C71.8099 54.928 70.1054 55.3182 68.1811 55.3182C66.0372 55.3182 64.1546 54.8371 62.5334 53.875C60.9198 52.9053 59.6584 51.5303 58.7493 49.75C57.8478 47.9621 57.397 45.8409 57.397 43.3864C57.397 41.5076 57.6622 39.8295 58.1925 38.3523C58.7304 36.875 59.4804 35.6212 60.4425 34.5909C61.4046 33.553 62.5334 32.7652 63.8289 32.2273C65.1243 31.6818 66.5334 31.4091 68.0561 31.4091C69.344 31.4091 70.5448 31.5985 71.6584 31.9773C72.772 32.3485 73.7607 32.8788 74.6243 33.5682C75.4955 34.2576 76.2114 35.0758 76.772 36.0227C77.3327 36.9697 77.7001 38.0152 77.8743 39.1591H73.5789ZM103.9 43.3636C103.9 45.8712 103.43 48.0189 102.491 49.8068C101.559 51.5871 100.286 52.9508 98.6724 53.8977C97.0663 54.8447 95.2444 55.3182 93.2065 55.3182C91.1686 55.3182 89.3428 54.8447 87.7292 53.8977C86.1231 52.9432 84.8504 51.5758 83.911 49.7955C82.9792 48.0076 82.5133 45.8636 82.5133 43.3636C82.5133 40.8561 82.9792 38.7121 83.911 36.9318C84.8504 35.1439 86.1231 33.7765 87.7292 32.8295C89.3428 31.8826 91.1686 31.4091 93.2065 31.4091C95.2444 31.4091 97.0663 31.8826 98.6724 32.8295C100.286 33.7765 101.559 35.1439 102.491 36.9318C103.43 38.7121 103.9 40.8561 103.9 43.3636ZM99.661 43.3636C99.661 41.5985 99.3845 40.1098 98.8315 38.8977C98.286 37.678 97.5284 36.7576 96.5587 36.1364C95.589 35.5076 94.4716 35.1932 93.2065 35.1932C91.9413 35.1932 90.8239 35.5076 89.8542 36.1364C88.8845 36.7576 88.1231 37.678 87.5701 38.8977C87.0247 40.1098 86.7519 41.5985 86.7519 43.3636C86.7519 45.1288 87.0247 46.6212 87.5701 47.8409C88.1231 49.053 88.8845 49.9735 89.8542 50.6023C90.8239 51.2235 91.9413 51.5341 93.2065 51.5341C94.4716 51.5341 95.589 51.2235 96.5587 50.6023C97.5284 49.9735 98.286 49.053 98.8315 47.8409C99.3845 46.6212 99.661 45.1288 99.661 43.3636ZM117.743 55V31.7273H132.652V35.2614H121.959V41.5795H131.629V45.1136H121.959V55H117.743ZM137.535 55H133.035L141.229 31.7273H146.433L154.638 55H150.138L143.922 36.5H143.74L137.535 55ZM137.683 45.875H149.956V49.2614H137.683V45.875ZM170.936 38.125C170.83 37.1326 170.383 36.3598 169.595 35.8068C168.814 35.2538 167.799 34.9773 166.549 34.9773C165.671 34.9773 164.917 35.1098 164.288 35.375C163.659 35.6402 163.178 36 162.845 36.4545C162.511 36.9091 162.341 37.428 162.333 38.0114C162.333 38.4962 162.443 38.9167 162.663 39.2727C162.89 39.6288 163.197 39.9318 163.583 40.1818C163.97 40.4242 164.398 40.6288 164.867 40.7955C165.337 40.9621 165.811 41.1023 166.288 41.2159L168.47 41.7614C169.349 41.9659 170.193 42.2424 171.004 42.5909C171.822 42.9394 172.553 43.3788 173.197 43.9091C173.849 44.4394 174.364 45.0795 174.742 45.8295C175.121 46.5795 175.311 47.4583 175.311 48.4659C175.311 49.8295 174.962 51.0303 174.265 52.0682C173.568 53.0985 172.561 53.9053 171.242 54.4886C169.932 55.0644 168.345 55.3523 166.481 55.3523C164.671 55.3523 163.099 55.072 161.765 54.5114C160.439 53.9508 159.402 53.1326 158.652 52.0568C157.909 50.9811 157.508 49.6705 157.447 48.125H161.595C161.655 48.9356 161.905 49.6098 162.345 50.1477C162.784 50.6856 163.356 51.0871 164.061 51.3523C164.773 51.6174 165.568 51.75 166.447 51.75C167.364 51.75 168.167 51.6136 168.856 51.3409C169.553 51.0606 170.099 50.6742 170.492 50.1818C170.886 49.6818 171.087 49.0985 171.095 48.4318C171.087 47.8258 170.909 47.3258 170.561 46.9318C170.212 46.5303 169.724 46.197 169.095 45.9318C168.474 45.6591 167.746 45.4167 166.913 45.2045L164.265 44.5227C162.349 44.0303 160.833 43.2841 159.72 42.2841C158.614 41.2765 158.061 39.9394 158.061 38.2727C158.061 36.9015 158.432 35.7008 159.174 34.6705C159.924 33.6402 160.943 32.8409 162.231 32.2727C163.519 31.697 164.977 31.4091 166.606 31.4091C168.258 31.4091 169.705 31.697 170.947 32.2727C172.197 32.8409 173.178 33.6326 173.89 34.6477C174.602 35.6553 174.97 36.8144 174.992 38.125H170.936ZM179.006 35.2614V31.7273H197.575V35.2614H190.381V55H186.2V35.2614H179.006ZM205.668 51.8182L205.52 53.0682C205.414 54.0227 205.225 54.9924 204.952 55.9773C204.687 56.9697 204.407 57.8826 204.111 58.7159C203.816 59.5492 203.577 60.2045 203.395 60.6818H200.623C200.729 60.2197 200.873 59.5909 201.055 58.7955C201.244 58 201.426 57.1061 201.6 56.1136C201.774 55.1212 201.892 54.1136 201.952 53.0909L202.032 51.8182H205.668ZM20.1222 74.179C19.9091 73.4886 19.6151 72.8707 19.2401 72.3253C18.8736 71.7713 18.4304 71.2983 17.9105 70.9062C17.3991 70.5142 16.8111 70.2202 16.1463 70.0241C15.4815 69.8196 14.7571 69.7173 13.973 69.7173C12.5668 69.7173 11.3139 70.071 10.2145 70.7784C9.11506 71.4858 8.25 72.5256 7.61932 73.8977C6.99716 75.2614 6.68608 76.9233 6.68608 78.8835C6.68608 80.8608 6.99716 82.5355 7.61932 83.9077C8.24148 85.2798 9.10653 86.3239 10.2145 87.0398C11.3224 87.7472 12.6094 88.1009 14.0753 88.1009C15.4048 88.1009 16.5554 87.8452 17.527 87.3338C18.5071 86.8224 19.2614 86.098 19.7898 85.1605C20.3182 84.2145 20.5824 83.1065 20.5824 81.8366L21.6562 82.0028H14.5483V78.2955H25.1719V81.4403C25.1719 83.6818 24.6946 85.6207 23.7401 87.2571C22.7855 88.8935 21.473 90.1548 19.8026 91.0412C18.1321 91.919 16.2145 92.358 14.0497 92.358C11.6378 92.358 9.51989 91.8168 7.69602 90.7344C5.88068 89.6435 4.46165 88.0966 3.43892 86.0938C2.42472 84.0824 1.91761 81.696 1.91761 78.9347C1.91761 76.821 2.21591 74.9332 2.8125 73.2713C3.41761 71.6094 4.26136 70.1989 5.34375 69.0398C6.42614 67.8722 7.69602 66.9858 9.15341 66.3807C10.6108 65.767 12.196 65.4602 13.9091 65.4602C15.358 65.4602 16.7088 65.6733 17.9616 66.0994C19.2145 66.517 20.3267 67.1136 21.2983 67.8892C22.2784 68.6648 23.0838 69.5852 23.7145 70.6506C24.3452 71.7159 24.7585 72.892 24.9545 74.179H20.1222ZM54.2331 78.9091C54.2331 81.7301 53.7046 84.1463 52.6478 86.1577C51.5995 88.1605 50.1677 89.6946 48.3524 90.7599C46.5456 91.8253 44.4958 92.358 42.2032 92.358C39.9106 92.358 37.8566 91.8253 36.0413 90.7599C34.2345 89.6861 32.8027 88.1477 31.7458 86.1449C30.6975 84.1335 30.1734 81.7216 30.1734 78.9091C30.1734 76.0881 30.6975 73.6761 31.7458 71.6733C32.8027 69.6619 34.2345 68.1236 36.0413 67.0582C37.8566 65.9929 39.9106 65.4602 42.2032 65.4602C44.4958 65.4602 46.5456 65.9929 48.3524 67.0582C50.1677 68.1236 51.5995 69.6619 52.6478 71.6733C53.7046 73.6761 54.2331 76.0881 54.2331 78.9091ZM49.4646 78.9091C49.4646 76.9233 49.1535 75.2486 48.5314 73.8849C47.9177 72.5128 47.0654 71.4773 45.9745 70.7784C44.8836 70.071 43.6265 69.7173 42.2032 69.7173C40.7799 69.7173 39.5228 70.071 38.4319 70.7784C37.341 71.4773 36.4845 72.5128 35.8623 73.8849C35.2487 75.2486 34.9419 76.9233 34.9419 78.9091C34.9419 80.8949 35.2487 82.5739 35.8623 83.946C36.4845 85.3097 37.341 86.3452 38.4319 87.0526C39.5228 87.7514 40.7799 88.1009 42.2032 88.1009C43.6265 88.1009 44.8836 87.7514 45.9745 87.0526C47.0654 86.3452 47.9177 85.3097 48.5314 83.946C49.1535 82.5739 49.4646 80.8949 49.4646 78.9091ZM73.169 92H68.1065L77.3238 65.8182H83.1789L92.409 92H87.3465L80.3536 71.1875H80.1491L73.169 92ZM73.3352 81.7344H87.142V85.544H73.3352V81.7344ZM96.9375 92V65.8182H101.68V88.0241H113.212V92H96.9375ZM140.784 78.9091C140.784 81.7301 140.255 84.1463 139.198 86.1577C138.15 88.1605 136.718 89.6946 134.903 90.7599C133.096 91.8253 131.046 92.358 128.754 92.358C126.461 92.358 124.407 91.8253 122.592 90.7599C120.785 89.6861 119.353 88.1477 118.296 86.1449C117.248 84.1335 116.724 81.7216 116.724 78.9091C116.724 76.0881 117.248 73.6761 118.296 71.6733C119.353 69.6619 120.785 68.1236 122.592 67.0582C124.407 65.9929 126.461 65.4602 128.754 65.4602C131.046 65.4602 133.096 65.9929 134.903 67.0582C136.718 68.1236 138.15 69.6619 139.198 71.6733C140.255 73.6761 140.784 76.0881 140.784 78.9091ZM136.015 78.9091C136.015 76.9233 135.704 75.2486 135.082 73.8849C134.468 72.5128 133.616 71.4773 132.525 70.7784C131.434 70.071 130.177 69.7173 128.754 69.7173C127.33 69.7173 126.073 70.071 124.982 70.7784C123.891 71.4773 123.035 72.5128 122.413 73.8849C121.799 75.2486 121.492 76.9233 121.492 78.9091C121.492 80.8949 121.799 82.5739 122.413 83.946C123.035 85.3097 123.891 86.3452 124.982 87.0526C126.073 87.7514 127.33 88.1009 128.754 88.1009C130.177 88.1009 131.434 87.7514 132.525 87.0526C133.616 86.3452 134.468 85.3097 135.082 83.946C135.704 82.5739 136.015 80.8949 136.015 78.9091ZM167.863 65.8182V92H163.644L151.308 74.1662H151.09V92H146.348V65.8182H150.592L162.916 83.6648H163.146V65.8182H167.863ZM174.111 92V65.8182H191.14V69.794H178.854V76.902H190.257V80.8778H178.854V88.0241H191.242V92H174.111ZM199.705 92.2812C198.929 92.2812 198.264 92.0085 197.71 91.4631C197.156 90.9176 196.884 90.2528 196.892 89.4688C196.884 88.7017 197.156 88.0455 197.71 87.5C198.264 86.9545 198.929 86.6818 199.705 86.6818C200.455 86.6818 201.107 86.9545 201.661 87.5C202.223 88.0455 202.509 88.7017 202.517 89.4688C202.509 89.9886 202.372 90.4616 202.108 90.8878C201.852 91.3139 201.511 91.6548 201.085 91.9105C200.668 92.1577 200.207 92.2812 199.705 92.2812ZM12.2088 109.364V153H4.30398V109.364H12.2088ZM22.5688 153V109.364H50.5234V115.99H30.4737V127.837H48.6058V134.463H30.4737V153H22.5688ZM73.2249 109.364H82.1525L92.8272 128.668H93.2533L103.928 109.364H112.856L96.982 136.722V153H89.0985V136.722L73.2249 109.364ZM156.785 131.182C156.785 135.884 155.904 139.911 154.142 143.263C152.395 146.601 150.009 149.158 146.983 150.933C143.972 152.709 140.556 153.597 136.735 153.597C132.914 153.597 129.49 152.709 126.465 150.933C123.454 149.143 121.067 146.58 119.306 143.241C117.559 139.889 116.685 135.869 116.685 131.182C116.685 126.48 117.559 122.46 119.306 119.122C121.067 115.77 123.454 113.206 126.465 111.43C129.49 109.655 132.914 108.767 136.735 108.767C140.556 108.767 143.972 109.655 146.983 111.43C150.009 113.206 152.395 115.77 154.142 119.122C155.904 122.46 156.785 126.48 156.785 131.182ZM148.837 131.182C148.837 127.872 148.319 125.081 147.282 122.808C146.259 120.521 144.838 118.795 143.02 117.631C141.202 116.452 139.107 115.862 136.735 115.862C134.363 115.862 132.267 116.452 130.449 117.631C128.631 118.795 127.204 120.521 126.167 122.808C125.144 125.081 124.633 127.872 124.633 131.182C124.633 134.491 125.144 137.29 126.167 139.577C127.204 141.849 128.631 143.575 130.449 144.754C132.267 145.919 134.363 146.501 136.735 146.501C139.107 146.501 141.202 145.919 143.02 144.754C144.838 143.575 146.259 141.849 147.282 139.577C148.319 137.29 148.837 134.491 148.837 131.182ZM193.565 109.364H201.47V137.872C201.47 140.997 200.731 143.746 199.254 146.118C197.791 148.49 195.731 150.344 193.075 151.679C190.419 153 187.315 153.661 183.764 153.661C180.199 153.661 177.088 153 174.431 151.679C171.775 150.344 169.716 148.49 168.252 146.118C166.789 143.746 166.058 140.997 166.058 137.872V109.364H173.963V137.212C173.963 139.03 174.36 140.649 175.156 142.07C175.966 143.49 177.102 144.605 178.565 145.415C180.028 146.21 181.761 146.608 183.764 146.608C185.767 146.608 187.5 146.21 188.963 145.415C190.44 144.605 191.576 143.49 192.372 142.07C193.167 140.649 193.565 139.03 193.565 137.212V109.364ZM9.44105 196L0.820312 165.455H6.77131L12.2749 187.901H12.5582L18.4347 165.455H23.8487L29.7401 187.916H30.0085L35.5121 165.455H41.4631L32.8423 196H27.3835L21.2685 174.567H21.0298L14.8999 196H9.44105ZM47.6114 196H41.7051L52.4587 165.455H59.2897L70.0581 196H64.1519L55.9935 171.719H55.7548L47.6114 196ZM47.8053 184.023H63.9132V188.468H47.8053V184.023ZM100.443 165.455V196H95.5211L81.1283 175.194H80.8748V196H75.3414V165.455H80.2931L94.6709 186.276H94.9394V165.455H100.443ZM106.39 170.093V165.455H130.761V170.093H121.32V196H115.831V170.093H106.39ZM147.054 170.093V165.455H171.425V170.093H161.984V196H156.495V170.093H147.054ZM203.324 180.727C203.324 184.018 202.707 186.837 201.474 189.184C200.251 191.521 198.581 193.31 196.463 194.553C194.355 195.796 191.964 196.418 189.289 196.418C186.614 196.418 184.218 195.796 182.1 194.553C179.992 193.3 178.322 191.506 177.089 189.169C175.866 186.822 175.254 184.009 175.254 180.727C175.254 177.436 175.866 174.622 177.089 172.286C178.322 169.939 179.992 168.144 182.1 166.901C184.218 165.658 186.614 165.037 189.289 165.037C191.964 165.037 194.355 165.658 196.463 166.901C198.581 168.144 200.251 169.939 201.474 172.286C202.707 174.622 203.324 177.436 203.324 180.727ZM197.761 180.727C197.761 178.411 197.398 176.457 196.672 174.866C195.956 173.265 194.962 172.057 193.689 171.241C192.416 170.416 190.95 170.004 189.289 170.004C187.629 170.004 186.162 170.416 184.889 171.241C183.616 172.057 182.617 173.265 181.891 174.866C181.175 176.457 180.817 178.411 180.817 180.727C180.817 183.044 181.175 185.003 181.891 186.604C182.617 188.195 183.616 189.403 184.889 190.228C186.162 191.043 187.629 191.451 189.289 191.451C190.95 191.451 192.416 191.043 193.689 190.228C194.962 189.403 195.956 188.195 196.672 186.604C197.398 185.003 197.761 183.044 197.761 180.727ZM19.0043 214.169C18.803 213.517 18.5253 212.933 18.1712 212.418C17.825 211.895 17.4065 211.448 16.9155 211.078C16.4325 210.708 15.8771 210.43 15.2493 210.245C14.6214 210.052 13.9373 209.955 13.1967 209.955C11.8686 209.955 10.6854 210.289 9.64702 210.957C8.60867 211.625 7.79167 212.607 7.19602 213.903C6.60843 215.191 6.31463 216.761 6.31463 218.612C6.31463 220.48 6.60843 222.061 7.19602 223.357C7.78362 224.653 8.60062 225.639 9.64702 226.315C10.6934 226.983 11.9089 227.317 13.2933 227.317C14.549 227.317 15.6357 227.076 16.5533 226.593C17.4789 226.11 18.1913 225.426 18.6903 224.54C19.1894 223.647 19.4389 222.601 19.4389 221.401L20.4531 221.558H13.7401V218.057H23.7734V221.027C23.7734 223.144 23.3227 224.975 22.4212 226.521C21.5197 228.066 20.2801 229.257 18.7024 230.094C17.1248 230.924 15.3137 231.338 13.2692 231.338C10.9912 231.338 8.991 230.827 7.26847 229.805C5.55398 228.774 4.21378 227.313 3.24787 225.422C2.29001 223.522 1.81108 221.268 1.81108 218.661C1.81108 216.664 2.0928 214.881 2.65625 213.312C3.22775 211.742 4.02462 210.41 5.04688 209.315C6.06913 208.213 7.26847 207.375 8.64489 206.804C10.0213 206.224 11.5185 205.935 13.1364 205.935C14.5047 205.935 15.7805 206.136 16.9638 206.538C18.147 206.933 19.1974 207.496 20.1151 208.229C21.0407 208.961 21.8014 209.83 22.397 210.837C22.9927 211.843 23.3831 212.954 23.5682 214.169H19.0043ZM51.2201 218.636C51.2201 221.301 50.7211 223.583 49.7229 225.482C48.7329 227.374 47.3806 228.823 45.6661 229.829C43.9597 230.835 42.0238 231.338 39.8586 231.338C37.6934 231.338 35.7535 230.835 34.039 229.829C32.3326 228.815 30.9803 227.362 29.9822 225.47C28.9921 223.571 28.4971 221.293 28.4971 218.636C28.4971 215.972 28.9921 213.694 29.9822 211.803C30.9803 209.903 32.3326 208.45 34.039 207.444C35.7535 206.438 37.6934 205.935 39.8586 205.935C42.0238 205.935 43.9597 206.438 45.6661 207.444C47.3806 208.45 48.7329 209.903 49.7229 211.803C50.7211 213.694 51.2201 215.972 51.2201 218.636ZM46.7166 218.636C46.7166 216.761 46.4228 215.179 45.8352 213.891C45.2556 212.595 44.4507 211.617 43.4204 210.957C42.3901 210.289 41.2028 209.955 39.8586 209.955C38.5144 209.955 37.3271 210.289 36.2968 210.957C35.2665 211.617 34.4576 212.595 33.87 213.891C33.2904 215.179 33.0006 216.761 33.0006 218.636C33.0006 220.512 33.2904 222.098 33.87 223.393C34.4576 224.681 35.2665 225.659 36.2968 226.327C37.3271 226.987 38.5144 227.317 39.8586 227.317C41.2028 227.317 42.3901 226.987 43.4204 226.327C44.4507 225.659 45.2556 224.681 45.8352 223.393C46.4228 222.098 46.7166 220.512 46.7166 218.636ZM65.9286 231V206.273H81.7695V210.028H70.408V216.741H80.6829V220.496H70.408V231H65.9286ZM86.958 231H82.1768L90.882 206.273H96.4119L105.129 231H100.348L93.7435 211.344H93.5504L86.958 231ZM87.115 221.305H100.155V224.903H87.115V221.305ZM109.406 231V206.273H118.679C120.578 206.273 122.172 206.603 123.46 207.263C124.756 207.923 125.734 208.848 126.394 210.04C127.062 211.223 127.396 212.603 127.396 214.181C127.396 215.767 127.058 217.143 126.382 218.31C125.714 219.469 124.728 220.367 123.424 221.003C122.12 221.631 120.518 221.945 118.618 221.945H112.014V218.226H118.015C119.126 218.226 120.035 218.073 120.743 217.767C121.452 217.453 121.975 216.998 122.313 216.403C122.659 215.799 122.832 215.058 122.832 214.181C122.832 213.304 122.659 212.555 122.313 211.935C121.967 211.308 121.44 210.833 120.731 210.511C120.023 210.181 119.109 210.016 117.991 210.016H113.886V231H109.406ZM122.18 219.795L128.302 231H123.303L117.29 219.795H122.18ZM137.478 227.619L137.321 228.947C137.208 229.962 137.007 230.992 136.717 232.038C136.435 233.093 136.137 234.063 135.823 234.948C135.51 235.834 135.256 236.53 135.063 237.037H132.117C132.229 236.546 132.382 235.878 132.576 235.033C132.777 234.188 132.97 233.238 133.155 232.183C133.34 231.129 133.465 230.058 133.529 228.972L133.614 227.619H137.478ZM168.842 214.169C168.641 213.517 168.363 212.933 168.009 212.418C167.663 211.895 167.244 211.448 166.753 211.078C166.27 210.708 165.715 210.43 165.087 210.245C164.459 210.052 163.775 209.955 163.034 209.955C161.706 209.955 160.523 210.289 159.485 210.957C158.446 211.625 157.629 212.607 157.034 213.903C156.446 215.191 156.152 216.761 156.152 218.612C156.152 220.48 156.446 222.061 157.034 223.357C157.621 224.653 158.438 225.639 159.485 226.315C160.531 226.983 161.747 227.317 163.131 227.317C164.387 227.317 165.473 227.076 166.391 226.593C167.317 226.11 168.029 225.426 168.528 224.54C169.027 223.647 169.277 222.601 169.277 221.401L170.291 221.558H163.578V218.057H173.611V221.027C173.611 223.144 173.16 224.975 172.259 226.521C171.357 228.066 170.118 229.257 168.54 230.094C166.963 230.924 165.151 231.338 163.107 231.338C160.829 231.338 158.829 230.827 157.106 229.805C155.392 228.774 154.052 227.313 153.086 225.422C152.128 223.522 151.649 221.268 151.649 218.661C151.649 216.664 151.931 214.881 152.494 213.312C153.065 211.742 153.862 210.41 154.885 209.315C155.907 208.213 157.106 207.375 158.483 206.804C159.859 206.224 161.356 205.935 162.974 205.935C164.342 205.935 165.618 206.136 166.802 206.538C167.985 206.933 169.035 207.496 169.953 208.229C170.878 208.961 171.639 209.83 172.235 210.837C172.83 211.843 173.221 212.954 173.406 214.169H168.842ZM201.058 218.636C201.058 221.301 200.559 223.583 199.561 225.482C198.571 227.374 197.218 228.823 195.504 229.829C193.797 230.835 191.862 231.338 189.696 231.338C187.531 231.338 185.591 230.835 183.877 229.829C182.17 228.815 180.818 227.362 179.82 225.47C178.83 223.571 178.335 221.293 178.335 218.636C178.335 215.972 178.83 213.694 179.82 211.803C180.818 209.903 182.17 208.45 183.877 207.444C185.591 206.438 187.531 205.935 189.696 205.935C191.862 205.935 193.797 206.438 195.504 207.444C197.218 208.45 198.571 209.903 199.561 211.803C200.559 213.694 201.058 215.972 201.058 218.636ZM196.554 218.636C196.554 216.761 196.26 215.179 195.673 213.891C195.093 212.595 194.288 211.617 193.258 210.957C192.228 210.289 191.041 209.955 189.696 209.955C188.352 209.955 187.165 210.289 186.135 210.957C185.104 211.617 184.295 212.595 183.708 213.891C183.128 215.179 182.838 216.761 182.838 218.636C182.838 220.512 183.128 222.098 183.708 223.393C184.295 224.681 185.104 225.659 186.135 226.327C187.165 226.987 188.352 227.317 189.696 227.317C191.041 227.317 192.228 226.987 193.258 226.327C194.288 225.659 195.093 224.681 195.673 223.393C196.26 222.098 196.554 220.512 196.554 218.636ZM1.0625 246.126V241.273H21.9624V246.126H14.4645V266H8.57244V246.126H1.0625ZM48.1111 253.636C48.1111 256.357 47.5879 258.663 46.5415 260.555C45.4951 262.446 44.0784 263.883 42.2915 264.865C40.5126 265.847 38.5164 266.338 36.3028 266.338C34.0813 266.338 32.081 265.843 30.3021 264.853C28.5233 263.863 27.1106 262.426 26.0642 260.543C25.0259 258.651 24.5067 256.349 24.5067 253.636C24.5067 250.916 25.0259 248.61 26.0642 246.718C27.1106 244.826 28.5233 243.39 30.3021 242.408C32.081 241.426 34.0813 240.935 36.3028 240.935C38.5164 240.935 40.5126 241.426 42.2915 242.408C44.0784 243.39 45.4951 244.826 46.5415 246.718C47.5879 248.61 48.1111 250.916 48.1111 253.636ZM42.0017 253.636C42.0017 252.027 41.7723 250.666 41.3135 249.555C40.8627 248.445 40.2108 247.603 39.3575 247.032C38.5124 246.46 37.4941 246.175 36.3028 246.175C35.1196 246.175 34.1014 246.46 33.2482 247.032C32.3949 247.603 31.7389 248.445 31.2801 249.555C30.8294 250.666 30.604 252.027 30.604 253.636C30.604 255.246 30.8294 256.607 31.2801 257.717C31.7389 258.828 32.3949 259.669 33.2482 260.241C34.1014 260.812 35.1196 261.098 36.3028 261.098C37.4941 261.098 38.5124 260.812 39.3575 260.241C40.2108 259.669 40.8627 258.828 41.3135 257.717C41.7723 256.607 42.0017 255.246 42.0017 253.636ZM68.8477 249.35C68.7109 248.843 68.5096 248.396 68.244 248.01C67.9784 247.616 67.6524 247.281 67.266 247.008C66.8797 246.734 66.437 246.529 65.9379 246.392C65.4389 246.247 64.8915 246.175 64.2959 246.175C63.0965 246.175 62.0582 246.464 61.1808 247.044C60.3115 247.624 59.6394 248.469 59.1645 249.58C58.6896 250.682 58.4521 252.022 58.4521 253.6C58.4521 255.186 58.6815 256.538 59.1403 257.657C59.5991 258.776 60.2632 259.629 61.1325 260.217C62.0018 260.804 63.0563 261.098 64.2959 261.098C65.3906 261.098 66.3162 260.921 67.0728 260.567C67.8375 260.205 68.4171 259.693 68.8115 259.033C69.2059 258.373 69.4031 257.597 69.4031 256.703L70.5139 256.836H64.5011V252.477H75.1623V255.749C75.1623 257.963 74.6915 259.858 73.7497 261.436C72.816 263.014 71.5281 264.225 69.8861 265.07C68.2521 265.915 66.3726 266.338 64.2476 266.338C61.8891 266.338 59.8165 265.827 58.0295 264.805C56.2426 263.782 54.8501 262.326 53.852 260.434C52.8539 258.534 52.3548 256.281 52.3548 253.673C52.3548 251.644 52.6567 249.845 53.2603 248.276C53.864 246.698 54.7052 245.362 55.7838 244.267C56.8704 243.172 58.1261 242.343 59.5508 241.78C60.9836 241.216 62.525 240.935 64.1751 240.935C65.6079 240.935 66.94 241.14 68.1716 241.55C69.4112 241.961 70.5059 242.54 71.4557 243.289C72.4135 244.038 73.1903 244.927 73.7859 245.957C74.3816 246.988 74.7518 248.119 74.8967 249.35H68.8477ZM79.7049 266V241.273H96.9464V246.126H85.6814V251.197H96.065V256.063H85.6814V261.146H96.9464V266H79.7049ZM100.9 246.126V241.273H121.8V246.126H114.302V266H108.41V246.126H100.9ZM125.739 266V241.273H131.716V251.197H141.459V241.273H147.424V266H141.459V256.063H131.716V266H125.739ZM152.193 266V241.273H169.434V246.126H158.169V251.197H168.553V256.063H158.169V261.146H169.434V266H152.193ZM174.197 266V241.273H184.411C186.263 241.273 187.861 241.607 189.205 242.275C190.557 242.935 191.599 243.885 192.332 245.124C193.064 246.356 193.431 247.817 193.431 249.507C193.431 251.222 193.056 252.679 192.308 253.878C191.559 255.069 190.497 255.979 189.12 256.607C187.744 257.226 186.114 257.536 184.23 257.536H177.771V252.827H183.12C184.021 252.827 184.774 252.711 185.377 252.477C185.989 252.236 186.452 251.874 186.766 251.391C187.08 250.9 187.237 250.272 187.237 249.507C187.237 248.742 187.08 248.111 186.766 247.612C186.452 247.104 185.989 246.726 185.377 246.477C184.766 246.219 184.013 246.09 183.12 246.09H180.174V266H174.197ZM188.118 254.699L194.276 266H187.756L181.719 254.699H188.118ZM201.049 266.35C200.18 266.35 199.435 266.044 198.815 265.433C198.204 264.821 197.902 264.08 197.91 263.211C197.902 262.358 198.204 261.629 198.815 261.026C199.435 260.414 200.18 260.108 201.049 260.108C201.87 260.108 202.594 260.414 203.222 261.026C203.858 261.629 204.18 262.358 204.188 263.211C204.18 263.79 204.027 264.318 203.729 264.793C203.44 265.268 203.057 265.646 202.582 265.928C202.116 266.209 201.604 266.35 201.049 266.35Z" fill="black"/>
</svg>
